<svg width="390" height="844" viewBox="0 0 390 844" fill="none" xmlns="http://www.w3.org/2000/svg" role="img" aria-label="ToastKit modal screenshot">
  <rect width="390" height="844" rx="44" fill="#E8EEF7"/>
  <rect x="20" y="20" width="350" height="804" rx="36" fill="#F8FAFC" stroke="#D8DEE9"/>
  <rect x="44" y="70" width="132" height="14" rx="7" fill="#334155"/>
  <rect x="44" y="112" width="302" height="78" rx="18" fill="#FFFFFF"/>
  <rect x="64" y="138" width="220" height="10" rx="5" fill="#CBD5E1"/>
  <rect x="64" y="162" width="160" height="10" rx="5" fill="#CBD5E1"/>
  <rect x="44" y="218" width="302" height="320" rx="22" fill="#FFFFFF"/>
  <rect x="64" y="250" width="106" height="12" rx="6" fill="#0F172A"/>
  <rect x="64" y="286" width="248" height="10" rx="5" fill="#CBD5E1"/>
  <rect x="64" y="314" width="226" height="10" rx="5" fill="#CBD5E1"/>
  <rect x="64" y="342" width="244" height="10" rx="5" fill="#CBD5E1"/>
  <rect x="64" y="392" width="262" height="50" rx="14" fill="#EEF2FF"/>
  <rect x="64" y="462" width="262" height="50" rx="14" fill="#ECFDF5"/>
  <rect x="20" y="20" width="350" height="804" rx="36" fill="#020617" opacity=".28"/>
  <g filter="url(#shadow)">
    <rect x="72" y="52" width="246" height="54" rx="27" fill="#FFF7ED"/>
    <rect x="72.5" y="52.5" width="245" height="53" rx="26.5" stroke="#F97316" stroke-opacity=".58"/>
    <circle cx="105" cy="79" r="10" fill="#F97316"/>
    <path d="M105 73.8v6.2" stroke="white" stroke-width="2.2" stroke-linecap="round"/>
    <circle cx="105" cy="84.6" r="1.3" fill="white"/>
    <text x="128" y="84" font-family="-apple-system,BlinkMacSystemFont,Segoe UI,sans-serif" font-size="15" font-weight="600" fill="#111827">Please wait a moment</text>
  </g>
  <text x="44" y="786" font-family="-apple-system,BlinkMacSystemFont,Segoe UI,sans-serif" font-size="13" fill="#E2E8F0">Modal: overlay blocks the underlying UI</text>
  <defs>
    <filter id="shadow" x="42" y="28" width="306" height="114" filterUnits="userSpaceOnUse" color-interpolation-filters="sRGB">
      <feDropShadow dx="0" dy="12" stdDeviation="15" flood-color="#020617" flood-opacity=".26"/>
    </filter>
  </defs>
</svg>
