<svg width="390" height="844" viewBox="0 0 390 844" fill="none" xmlns="http://www.w3.org/2000/svg" role="img" aria-label="ToastKit custom content screenshot">
  <rect width="390" height="844" rx="44" fill="#F6F4EF"/>
  <rect x="20" y="20" width="350" height="804" rx="36" fill="#FFFFFF" stroke="#DEDAD2"/>
  <rect x="44" y="70" width="112" height="14" rx="7" fill="#1F2937"/>
  <rect x="44" y="112" width="302" height="160" rx="24" fill="#ECFEFF"/>
  <circle cx="98" cy="168" r="28" fill="#06B6D4" opacity=".16"/>
  <path d="M87 171l8 8 16-20" stroke="#0891B2" stroke-width="5" stroke-linecap="round" stroke-linejoin="round"/>
  <rect x="144" y="144" width="142" height="12" rx="6" fill="#0F172A"/>
  <rect x="144" y="172" width="158" height="10" rx="5" fill="#64748B"/>
  <rect x="44" y="302" width="302" height="84" rx="18" fill="#F8FAFC" stroke="#E2E8F0"/>
  <rect x="66" y="326" width="220" height="10" rx="5" fill="#CBD5E1"/>
  <rect x="66" y="354" width="170" height="10" rx="5" fill="#CBD5E1"/>
  <rect x="44" y="412" width="302" height="84" rx="18" fill="#F8FAFC" stroke="#E2E8F0"/>
  <rect x="66" y="436" width="238" height="10" rx="5" fill="#CBD5E1"/>
  <rect x="66" y="464" width="156" height="10" rx="5" fill="#CBD5E1"/>
  <g filter="url(#shadow)">
    <rect x="58" y="44" width="274" height="72" rx="28" fill="#FFFFFF" fill-opacity=".92"/>
    <rect x="58.5" y="44.5" width="273" height="71" rx="27.5" stroke="#38BDF8" stroke-opacity=".45"/>
    <circle cx="96" cy="80" r="15" fill="#E0F2FE"/>
    <path d="M90 81.5h8.2c5.3 0 8.8-2.9 8.8-7.1 0-3.9-3.1-6.7-7.3-6.7-3.3 0-6.1 1.8-7.1 4.5" stroke="#0284C7" stroke-width="2.4" stroke-linecap="round"/>
    <path d="M101.5 87.5h-8.2c-5.3 0-8.8-2.9-8.8-7.1" stroke="#0284C7" stroke-width="2.4" stroke-linecap="round"/>
    <text x="124" y="76" font-family="-apple-system,BlinkMacSystemFont,Segoe UI,sans-serif" font-size="15" font-weight="700" fill="#0F172A">Upload complete</text>
    <text x="124" y="96" font-family="-apple-system,BlinkMacSystemFont,Segoe UI,sans-serif" font-size="12" fill="#64748B">12 files were backed up</text>
  </g>
  <text x="44" y="786" font-family="-apple-system,BlinkMacSystemFont,Segoe UI,sans-serif" font-size="13" fill="#64748B">Custom: bring any SwiftUI view</text>
  <defs>
    <filter id="shadow" x="28" y="18" width="334" height="132" filterUnits="userSpaceOnUse" color-interpolation-filters="sRGB">
      <feDropShadow dx="0" dy="12" stdDeviation="16" flood-color="#0F172A" flood-opacity=".17"/>
    </filter>
  </defs>
</svg>
