<svg width="390" height="844" viewBox="0 0 390 844" fill="none" xmlns="http://www.w3.org/2000/svg" role="img" aria-label="ToastKit non-modal screenshot">
  <rect width="390" height="844" rx="44" fill="#F5F7FA"/>
  <rect x="20" y="20" width="350" height="804" rx="36" fill="#FFFFFF" stroke="#D8DEE9"/>
  <rect x="44" y="70" width="120" height="14" rx="7" fill="#1F2937"/>
  <rect x="44" y="104" width="302" height="96" rx="18" fill="#EEF2FF"/>
  <rect x="62" y="124" width="180" height="12" rx="6" fill="#6366F1" opacity=".75"/>
  <rect x="62" y="148" width="248" height="10" rx="5" fill="#94A3B8"/>
  <rect x="62" y="170" width="210" height="10" rx="5" fill="#CBD5E1"/>
  <rect x="44" y="226" width="302" height="112" rx="18" fill="#F8FAFC" stroke="#E2E8F0"/>
  <rect x="62" y="248" width="108" height="12" rx="6" fill="#0F172A"/>
  <rect x="62" y="278" width="246" height="10" rx="5" fill="#CBD5E1"/>
  <rect x="62" y="302" width="190" height="10" rx="5" fill="#CBD5E1"/>
  <rect x="44" y="364" width="302" height="112" rx="18" fill="#F8FAFC" stroke="#E2E8F0"/>
  <rect x="62" y="386" width="132" height="12" rx="6" fill="#0F172A"/>
  <rect x="62" y="416" width="252" height="10" rx="5" fill="#CBD5E1"/>
  <rect x="62" y="440" width="168" height="10" rx="5" fill="#CBD5E1"/>
  <g filter="url(#shadow)">
    <rect x="88" y="42" width="214" height="48" rx="24" fill="#F0FDF4"/>
    <rect x="88.5" y="42.5" width="213" height="47" rx="23.5" stroke="#22C55E" stroke-opacity=".55"/>
    <circle cx="118" cy="66" r="10" fill="#22C55E"/>
    <path d="M113.5 66.2l3.2 3.2 6.1-7" stroke="white" stroke-width="2.2" stroke-linecap="round" stroke-linejoin="round"/>
    <text x="140" y="71" font-family="-apple-system,BlinkMacSystemFont,Segoe UI,sans-serif" font-size="15" font-weight="600" fill="#111827">Saved successfully</text>
  </g>
  <text x="44" y="786" font-family="-apple-system,BlinkMacSystemFont,Segoe UI,sans-serif" font-size="13" fill="#64748B">Non-modal: background remains interactive</text>
  <defs>
    <filter id="shadow" x="58" y="18" width="274" height="108" filterUnits="userSpaceOnUse" color-interpolation-filters="sRGB">
      <feDropShadow dx="0" dy="10" stdDeviation="14" flood-color="#0F172A" flood-opacity=".16"/>
    </filter>
  </defs>
</svg>
